<svg width="60" height="60" viewBox="0 0 60 60" fill="none" xmlns="http://www.w3.org/2000/svg">
<path d="M41.4889 30.5882C46.2214 30.5882 50.2929 26.3625 50.2929 20.8596C50.2929 15.4232 46.2 11.3957 41.4889 11.3957C36.7789 11.3957 32.685 15.511 32.685 20.9035C32.685 26.3625 36.7564 30.5882 41.4889 30.5882ZM16.155 31.095C20.2489 31.095 23.8157 27.3964 23.8157 22.62C23.8157 17.8885 20.2264 14.3882 16.155 14.3882C12.0621 14.3882 8.45143 17.9764 8.47393 22.665C8.47393 27.3964 12.0396 31.095 16.1561 31.095M3.87429 50.97H20.6014C18.3129 47.6464 21.1082 40.9553 25.8407 37.3018C23.3979 35.6732 20.2489 34.4625 16.1336 34.4625C6.20678 34.4614 0 41.79 0 47.8875C0 49.8696 1.10036 50.97 3.87429 50.97ZM27.645 50.97H55.3114C58.7668 50.97 60 49.9789 60 48.0418C60 42.3632 52.89 34.5278 41.4675 34.5278C30.0664 34.5278 22.9564 42.3632 22.9564 48.0428C22.9564 49.9789 24.1886 50.97 27.645 50.97Z" fill="#097AAC"/>
</svg>
