<svg width="70" height="70" viewBox="0 0 70 70" fill="none" xmlns="http://www.w3.org/2000/svg">
<circle cx="35" cy="35" r="35" fill="#9282CE"/>
<g clip-path="url(#clip0_37_84)">
<path d="M58.2734 23.026C59.0437 24.1146 59.217 25.3464 58.7933 26.7214L50.8497 52.6745C50.4838 53.8967 49.7472 54.9232 48.6399 55.7539C47.5326 56.5846 46.3531 57 45.1013 57H18.4395C16.9567 57 15.5268 56.4892 14.1499 55.4674C12.773 54.4457 11.815 53.1901 11.2758 51.7005C10.8136 50.421 10.7943 49.2083 11.218 48.0625C11.218 47.9861 11.2469 47.7283 11.3047 47.2891C11.3624 46.8498 11.4009 46.4965 11.4202 46.2292C11.4395 46.0764 11.4106 45.8711 11.3335 45.6133C11.2565 45.3555 11.2276 45.1693 11.2469 45.0547C11.2854 44.8446 11.3624 44.6441 11.478 44.4531C11.5935 44.2622 11.7524 44.0378 11.9546 43.7799C12.1568 43.5221 12.3157 43.2977 12.4312 43.1068C12.8741 42.3811 13.3074 41.5074 13.7311 40.4857C14.1547 39.464 14.4436 38.5903 14.5977 37.8646C14.6554 37.6736 14.6602 37.3872 14.6121 37.0052C14.564 36.6233 14.5591 36.3559 14.5977 36.2031C14.6554 35.9931 14.8191 35.7257 15.0887 35.401C15.3583 35.0764 15.522 34.8568 15.5798 34.7422C15.9842 34.0547 16.3886 33.1762 16.793 32.1068C17.1974 31.0373 17.4381 30.178 17.5152 29.5286C17.5344 29.3568 17.5103 29.0512 17.4429 28.612C17.3755 28.1727 17.3804 27.9054 17.4574 27.8099C17.5344 27.5616 17.7462 27.2704 18.0929 26.9362C18.4395 26.602 18.6513 26.3872 18.7284 26.2917C19.0943 25.7951 19.5035 24.9883 19.956 23.8711C20.4086 22.7539 20.6734 21.8325 20.7504 21.1068C20.7697 20.954 20.7408 20.7105 20.6637 20.3763C20.5867 20.0421 20.5674 19.7891 20.606 19.6172C20.6445 19.4644 20.7311 19.2925 20.8659 19.1016C21.0007 18.9106 21.1741 18.691 21.3859 18.4427C21.5977 18.1944 21.7614 17.9939 21.8769 17.8411C22.031 17.612 22.1899 17.3207 22.3536 16.9674C22.5173 16.6141 22.6617 16.2799 22.7869 15.9648C22.912 15.6497 23.0661 15.306 23.249 14.9336C23.432 14.5612 23.6197 14.2556 23.8123 14.0169C24.0049 13.7782 24.26 13.5538 24.5778 13.3438C24.8955 13.1337 25.2422 13.0239 25.6177 13.0143C25.9932 13.0048 26.4506 13.0573 26.9898 13.1719L26.9609 13.2578C27.6927 13.0859 28.1837 13 28.4341 13H50.4164C51.8414 13 52.9391 13.5347 53.7094 14.6042C54.4797 15.6736 54.653 16.9149 54.2293 18.3281L46.3146 44.2812C45.6213 46.5538 44.9328 48.0195 44.2492 48.6784C43.5656 49.3372 42.3283 49.6667 40.5373 49.6667H15.4354C14.9154 49.6667 14.5495 49.8099 14.3377 50.0964C14.1259 50.4019 14.1162 50.8125 14.3088 51.3281C14.771 52.6649 16.1575 53.3333 18.4684 53.3333H45.1302C45.6887 53.3333 46.2279 53.1853 46.7478 52.8893C47.2678 52.5933 47.6048 52.197 47.7589 51.7005L56.4247 23.4271C56.5595 23.0069 56.6076 22.4627 56.5691 21.7943C57.3009 22.0807 57.869 22.4913 58.2734 23.026ZM27.5386 23.0833C27.4616 23.3316 27.4808 23.5464 27.5964 23.7279C27.7119 23.9093 27.9045 24 28.1741 24H45.7368C45.9872 24 46.2327 23.9093 46.4734 23.7279C46.7141 23.5464 46.873 23.3316 46.95 23.0833L47.5567 21.25C47.6337 21.0017 47.6144 20.7869 47.4989 20.6055C47.3833 20.424 47.1908 20.3333 46.9212 20.3333H29.3584C29.1081 20.3333 28.8626 20.424 28.6218 20.6055C28.3811 20.7869 28.2223 21.0017 28.1452 21.25L27.5386 23.0833ZM25.1411 30.4167C25.064 30.6649 25.0833 30.8798 25.1988 31.0612C25.3144 31.2426 25.507 31.3333 25.7766 31.3333H43.3393C43.5896 31.3333 43.8352 31.2426 44.0759 31.0612C44.3166 30.8798 44.4755 30.6649 44.5525 30.4167L45.1591 28.5833C45.2361 28.3351 45.2169 28.1202 45.1013 27.9388C44.9858 27.7574 44.7932 27.6667 44.5236 27.6667H26.9609C26.7105 27.6667 26.465 27.7574 26.2243 27.9388C25.9836 28.1202 25.8247 28.3351 25.7477 28.5833L25.1411 30.4167Z" fill="white"/>
</g>
<defs>
<clipPath id="clip0_37_84">
<rect width="49" height="44" fill="white" transform="translate(10 13)"/>
</clipPath>
</defs>
</svg>
