<svg width="60" height="60" viewBox="0 0 60 60" fill="none" xmlns="http://www.w3.org/2000/svg">
<path d="M51.6109 7.96826C35.7685 9.68811 18.1281 11.9839 2.9248 15.0961L7.73746 47.6903C17.5945 45.6646 28.2875 43.8549 38.8613 42.3926C38.6991 41.631 38.5182 40.8735 38.3187 40.1209C28.8111 41.5465 19.1806 43.2656 10.5895 45.1854L9.48121 45.433L5.44762 18.0135L5.30711 17.057L6.24789 16.834C19.9635 13.582 35.1868 11.3879 48.6688 10.3349L49.6182 10.2608L54.6461 37.9385L53.5331 38.071C52.0915 38.2434 50.6506 38.4221 49.2106 38.607C49.4024 39.408 49.6105 40.2049 49.835 40.9973C52.2768 40.7141 54.6966 40.4498 57.0759 40.2121L51.6109 7.96826ZM47.8851 12.5205C35.0473 13.5677 20.6987 15.6478 7.67676 18.6744L11.2387 42.8892C19.1621 41.1513 27.8658 39.5918 36.5173 38.2697C35.556 37.2167 35.0462 35.8711 34.9394 34.4414C34.8188 32.8275 35.7752 31.4955 36.9116 30.5463C38.0482 29.5971 39.4339 28.9364 40.6825 28.582C41.6289 28.3135 42.7261 28.1566 43.836 28.1863C44.2073 28.1959 44.5777 28.2275 44.9452 28.2811C46.4158 28.4978 47.922 29.1286 48.7026 30.5416C49.7425 32.4241 49.7373 34.628 49.0548 36.5112C50.0935 36.3778 51.1326 36.2478 52.1721 36.1212L47.8851 12.5205ZM20.3207 20.1968L20.629 22.2832L11.9574 23.5636L11.6493 21.477L20.3207 20.1968ZM33.5364 24.9501L33.8897 27.0295L13.202 30.5438L12.8489 28.4644L33.5364 24.9501ZM28.8466 29.9592L29.1984 32.0388L13.9581 34.6179L13.6063 32.5383L28.8466 29.9592ZM43.4539 30.2985C42.6802 30.3125 41.8959 30.4303 41.2586 30.6111C40.297 30.884 39.1073 31.4608 38.264 32.1653C37.4207 32.8695 36.9925 33.6069 37.0431 34.2842C37.1417 35.6035 37.5873 36.5501 38.5645 37.2958C39.5416 38.0416 41.1585 38.5833 43.6261 38.6692C44.9827 38.7163 46.1637 37.7753 46.8591 36.3082C47.5545 34.8411 47.6352 32.971 46.8566 31.5614C46.5149 30.9428 45.7332 30.5292 44.6378 30.3678C44.355 30.3273 44.07 30.3042 43.7843 30.2989C43.6742 30.2966 43.564 30.2965 43.4539 30.2985ZM47.215 39.3459C46.2346 40.2522 44.9808 40.8266 43.5529 40.7768C42.4423 40.7382 41.4441 40.6162 40.55 40.4123C41.9547 46.0367 42.3832 52.0213 42.8276 57.5416C44.2769 56.5658 45.4599 55.2518 46.1771 53.297L46.7541 51.7241L47.9228 52.9245C49.3352 54.3754 50.8954 55.1543 52.5773 55.8015C50.8599 50.6361 48.5789 45.0187 47.215 39.3459Z" fill="#097AAC"/>
</svg>
