<svg width="70" height="70" viewBox="0 0 70 70" fill="none" xmlns="http://www.w3.org/2000/svg">
<circle cx="35" cy="35" r="35" fill="#097AAC"/>
<path d="M24.2857 10H45.7143C46.8509 10 47.941 10.5168 48.7447 11.4367C49.5485 12.3566 50 13.6043 50 14.9052V54.1469C50 55.4479 49.5485 56.6955 48.7447 57.6154C47.941 58.5353 46.8509 59.0521 45.7143 59.0521H24.2857C23.1491 59.0521 22.059 58.5353 21.2553 57.6154C20.4515 56.6955 20 55.4479 20 54.1469V14.9052C20 13.6043 20.4515 12.3566 21.2553 11.4367C22.059 10.5168 23.1491 10 24.2857 10ZM24.2857 14.9052V24.7156H45.7143V14.9052H24.2857ZM24.2857 29.6209V34.5261H28.5714V29.6209H24.2857ZM32.8571 29.6209V34.5261H37.1429V29.6209H32.8571ZM41.4286 29.6209V34.5261H45.7143V29.6209H41.4286ZM24.2857 39.4313V44.3365H28.5714V39.4313H24.2857ZM32.8571 39.4313V44.3365H37.1429V39.4313H32.8571ZM41.4286 39.4313V44.3365H45.7143V39.4313H41.4286ZM24.2857 49.2417V54.1469H28.5714V49.2417H24.2857ZM32.8571 49.2417V54.1469H37.1429V49.2417H32.8571ZM41.4286 49.2417V54.1469H45.7143V49.2417H41.4286Z" fill="white"/>
</svg>
