<svg width="46" height="46" viewBox="0 0 46 46" fill="none" xmlns="http://www.w3.org/2000/svg">
<path d="M14.9497 3.83337H31.0497C37.183 3.83337 42.1663 8.81671 42.1663 14.95V31.05C42.1663 33.9984 40.9951 36.8259 38.9103 38.9107C36.8256 40.9955 33.998 42.1667 31.0497 42.1667H14.9497C8.81634 42.1667 3.83301 37.1834 3.83301 31.05V14.95C3.83301 12.0017 5.00423 9.17415 7.089 7.08937C9.17378 5.00459 12.0014 3.83337 14.9497 3.83337ZM14.5663 7.66671C12.7363 7.66671 10.9813 8.39367 9.6873 9.68767C8.3933 10.9817 7.66634 12.7367 7.66634 14.5667V31.4334C7.66634 35.2475 10.7522 38.3334 14.5663 38.3334H31.433C33.263 38.3334 35.018 37.6064 36.312 36.3124C37.606 35.0184 38.333 33.2634 38.333 31.4334V14.5667C38.333 10.7525 35.2472 7.66671 31.433 7.66671H14.5663ZM33.0622 10.5417C33.6976 10.5417 34.307 10.7941 34.7563 11.2434C35.2056 11.6927 35.458 12.3021 35.458 12.9375C35.458 13.573 35.2056 14.1823 34.7563 14.6317C34.307 15.081 33.6976 15.3334 33.0622 15.3334C32.4268 15.3334 31.8174 15.081 31.3681 14.6317C30.9188 14.1823 30.6663 13.573 30.6663 12.9375C30.6663 12.3021 30.9188 11.6927 31.3681 11.2434C31.8174 10.7941 32.4268 10.5417 33.0622 10.5417ZM22.9997 13.4167C25.5413 13.4167 27.9789 14.4264 29.7761 16.2236C31.5733 18.0208 32.583 20.4584 32.583 23C32.583 25.5417 31.5733 27.9793 29.7761 29.7765C27.9789 31.5737 25.5413 32.5834 22.9997 32.5834C20.458 32.5834 18.0205 31.5737 16.2232 29.7765C14.426 27.9793 13.4163 25.5417 13.4163 23C13.4163 20.4584 14.426 18.0208 16.2232 16.2236C18.0205 14.4264 20.458 13.4167 22.9997 13.4167ZM22.9997 17.25C21.4747 17.25 20.0121 17.8558 18.9338 18.9342C17.8555 20.0125 17.2497 21.475 17.2497 23C17.2497 24.525 17.8555 25.9876 18.9338 27.0659C20.0121 28.1442 21.4747 28.75 22.9997 28.75C24.5247 28.75 25.9872 28.1442 27.0655 27.0659C28.1439 25.9876 28.7497 24.525 28.7497 23C28.7497 21.475 28.1439 20.0125 27.0655 18.9342C25.9872 17.8558 24.5247 17.25 22.9997 17.25Z" fill="white"/>
</svg>
