<svg width="70" height="72" viewBox="0 0 70 72" fill="none" xmlns="http://www.w3.org/2000/svg">
<ellipse cx="35" cy="36" rx="35" ry="36" fill="#3BADB2"/>
<path d="M54.1668 38.8328V47.5C54.1668 49.025 53.561 50.4875 52.4827 51.5659C51.4044 52.6442 49.9418 53.25 48.4168 53.25H21.5835C20.0585 53.25 18.596 52.6442 17.5176 51.5659C16.4393 50.4875 15.8335 49.025 15.8335 47.5V38.8328L16.8934 39.3638C22.511 42.1932 28.7136 43.6667 35.0035 43.666C41.2934 43.6653 47.4957 42.1905 53.1127 39.3599L54.1668 38.8328ZM38.8335 16.8333C40.3585 16.8333 41.821 17.4391 42.8994 18.5175C43.9777 19.5958 44.5835 21.0583 44.5835 22.5833V24.5H48.4168C49.9418 24.5 51.4044 25.1058 52.4827 26.1841C53.561 27.2625 54.1668 28.725 54.1668 30.25V34.5472L51.3934 35.9348C46.4312 38.4363 40.9624 39.769 35.4057 39.8307C29.849 39.8925 24.3518 38.6818 19.3352 36.2913L18.0952 35.678L15.8335 34.5472V30.25C15.8335 28.725 16.4393 27.2625 17.5176 26.1841C18.596 25.1058 20.0585 24.5 21.5835 24.5H25.4168V22.5833C25.4168 21.0583 26.0226 19.5958 27.101 18.5175C28.1793 17.4391 29.6418 16.8333 31.1668 16.8333H38.8335ZM35.0002 32.1667C34.4918 32.1667 34.0043 32.3686 33.6449 32.7281C33.2854 33.0875 33.0835 33.575 33.0835 34.0833C33.0822 34.335 33.1306 34.5845 33.2257 34.8176C33.3209 35.0506 33.461 35.2626 33.6381 35.4414C33.8152 35.6203 34.0258 35.7625 34.2578 35.86C34.4899 35.9575 34.7389 36.0083 34.9906 36.0096C35.2423 36.0109 35.4918 35.9625 35.7248 35.8674C35.9578 35.7722 36.1698 35.6321 36.3487 35.455C36.5275 35.2779 36.6698 35.0673 36.7673 34.8353C36.8647 34.6032 36.9156 34.3542 36.9168 34.1025C36.9168 33.0253 36.0582 32.1667 35.0002 32.1667ZM38.8335 20.6667H31.1668C30.6585 20.6667 30.171 20.8686 29.8115 21.2281C29.4521 21.5875 29.2502 22.075 29.2502 22.5833V24.5H40.7502V22.5833C40.7502 22.075 40.5482 21.5875 40.1888 21.2281C39.8293 20.8686 39.3418 20.6667 38.8335 20.6667Z" fill="white"/>
</svg>
