<svg width="46" height="46" viewBox="0 0 46 46" fill="none" xmlns="http://www.w3.org/2000/svg">
<path d="M5.03125 5.75H40.9688C43.746 5.75 46 8.004 46 10.7812V35.2188C46 36.5531 45.4699 37.8328 44.5264 38.7764C43.5828 39.7199 42.3031 40.25 40.9688 40.25H5.03125C3.69688 40.25 2.41716 39.7199 1.47362 38.7764C0.530077 37.8328 0 36.5531 0 35.2188L0 10.7812C0 8.004 2.254 5.75 5.03125 5.75ZM4.3125 35.2216C4.3125 35.6184 4.6345 35.9404 5.03125 35.9404H40.9688C41.1594 35.9404 41.3422 35.8646 41.477 35.7299C41.6118 35.5951 41.6875 35.4123 41.6875 35.2216V16.7009L24.0925 27.0164C23.7613 27.211 23.3841 27.3136 23 27.3136C22.6159 27.3136 22.2387 27.211 21.9075 27.0164L4.3125 16.7009V35.2216ZM41.6875 11.7013V10.7812C41.6875 10.5906 41.6118 10.4078 41.477 10.273C41.3422 10.1382 41.1594 10.0625 40.9688 10.0625H5.03125C4.84063 10.0625 4.65781 10.1382 4.52302 10.273C4.38823 10.4078 4.3125 10.5906 4.3125 10.7812V11.7013L23 22.655L41.6875 11.7013Z" fill="white"/>
</svg>
