<svg width="70" height="70" viewBox="0 0 70 70" fill="none" xmlns="http://www.w3.org/2000/svg">
<circle cx="35" cy="35" r="35" fill="#778F9A"/>
<path fill-rule="evenodd" clip-rule="evenodd" d="M22.625 14.75C22.2603 14.75 21.9106 14.8949 21.6527 15.1527C21.3949 15.4106 21.25 15.7603 21.25 16.125V51.875C21.25 52.2397 21.3949 52.5894 21.6527 52.8473C21.9106 53.1051 22.2603 53.25 22.625 53.25H47.375C47.7397 53.25 48.0894 53.1051 48.3473 52.8473C48.6051 52.5894 48.75 52.2397 48.75 51.875V16.125C48.75 15.7603 48.6051 15.4106 48.3473 15.1527C48.0894 14.8949 47.7397 14.75 47.375 14.75H22.625ZM43.25 27.125H26.75V24.375H43.25V27.125ZM43.25 35.375H26.75V32.625H43.25V35.375ZM26.75 43.625H37.75V40.875H26.75V43.625Z" fill="white"/>
</svg>
