<svg width="35" height="35" viewBox="0 0 35 35" fill="none" xmlns="http://www.w3.org/2000/svg">
<path d="M17.0833 30.75C20.708 30.75 24.1841 29.3101 26.7471 26.7471C29.3101 24.1841 30.75 20.708 30.75 17.0833C30.75 13.4587 29.3101 9.98254 26.7471 7.41954C24.1841 4.85654 20.708 3.41667 17.0833 3.41667C13.4587 3.41667 9.98254 4.85654 7.41954 7.41954C4.85654 9.98254 3.41667 13.4587 3.41667 17.0833C3.41667 20.708 4.85654 24.1841 7.41954 26.7471C9.98254 29.3101 13.4587 30.75 17.0833 30.75ZM17.0833 0C19.3267 0 21.5482 0.441874 23.6208 1.30039C25.6935 2.15891 27.5767 3.41726 29.1631 5.00359C30.7494 6.58993 32.0078 8.47318 32.8663 10.5458C33.7248 12.6185 34.1667 14.8399 34.1667 17.0833C34.1667 21.6141 32.3668 25.9593 29.1631 29.1631C25.9593 32.3668 21.6141 34.1667 17.0833 34.1667C7.63625 34.1667 0 26.4792 0 17.0833C0 12.5526 1.79985 8.20734 5.00359 5.00359C8.20734 1.79985 12.5526 0 17.0833 0ZM17.9375 8.54167V17.5104L25.625 22.0717L24.3438 24.1729L15.375 18.7917V8.54167H17.9375Z" fill="white"/>
</svg>
