<svg width="44" height="43" viewBox="0 0 44 43" fill="none" xmlns="http://www.w3.org/2000/svg">
<path d="M34.9255 8.7971C33.2444 7.13821 31.2423 5.82287 29.0359 4.92775C26.8295 4.03262 24.4628 3.57561 22.0738 3.58335C12.0638 3.58335 3.90546 11.5563 3.90546 21.3388C3.90546 24.4742 4.74879 27.52 6.32546 30.2075L3.75879 39.4167L13.3838 36.9442C16.0421 38.3596 19.0305 39.1121 22.0738 39.1121C32.0838 39.1121 40.2421 31.1392 40.2421 21.3567C40.2421 16.6088 38.3538 12.1475 34.9255 8.7971ZM22.0738 36.1021C19.3605 36.1021 16.7021 35.3854 14.3738 34.0417L13.8238 33.7192L8.10379 35.1883L9.62546 29.7417L9.25879 29.1863C7.75096 26.8339 6.95048 24.1145 6.94879 21.3388C6.94879 13.2046 13.7321 6.57543 22.0555 6.57543C26.0888 6.57543 29.8838 8.11627 32.7255 10.9113C34.1328 12.2799 35.248 13.9079 36.0064 15.701C36.7649 17.4941 37.1515 19.4165 37.1438 21.3567C37.1805 29.4909 30.3971 36.1021 22.0738 36.1021ZM30.3605 25.0654C29.9021 24.8504 27.6655 23.7754 27.2621 23.6142C26.8405 23.4708 26.5471 23.3992 26.2355 23.8292C25.9238 24.2771 25.0621 25.2804 24.8055 25.5671C24.5488 25.8717 24.2738 25.9075 23.8155 25.6746C23.3571 25.4596 21.8905 24.9759 20.1671 23.4708C18.8105 22.2884 17.9121 20.8371 17.6371 20.3892C17.3805 19.9413 17.6005 19.7083 17.8388 19.4754C18.0405 19.2783 18.2971 18.9558 18.5171 18.705C18.7371 18.4542 18.8288 18.2571 18.9755 17.9704C19.1221 17.6658 19.0488 17.415 18.9388 17.2C18.8288 16.985 17.9121 14.7992 17.5455 13.9033C17.1788 13.0433 16.7938 13.1508 16.5188 13.1329H15.6388C15.3271 13.1329 14.8505 13.2404 14.4288 13.6883C14.0255 14.1363 12.8521 15.2113 12.8521 17.3971C12.8521 19.5829 14.4838 21.6971 14.7038 21.9838C14.9238 22.2884 17.9121 26.7675 22.4588 28.6846C23.5405 29.1504 24.3838 29.4192 25.0438 29.6163C26.1255 29.9567 27.1155 29.9029 27.9038 29.7954C28.7838 29.67 30.5988 28.7204 30.9655 27.6813C31.3505 26.6421 31.3505 25.7642 31.2221 25.5671C31.0938 25.37 30.8188 25.2804 30.3605 25.0654Z" fill="white"/>
</svg>
