<svg width="32" height="32" viewBox="0 0 32 32" fill="none" xmlns="http://www.w3.org/2000/svg">
<path d="M13.3332 20L20.2532 16L13.3332 12V20ZM28.7465 9.56002C28.9198 10.1867 29.0398 11.0267 29.1198 12.0934C29.2132 13.16 29.2532 14.08 29.2532 14.88L29.3332 16C29.3332 18.92 29.1198 21.0667 28.7465 22.44C28.4132 23.64 27.6398 24.4134 26.4398 24.7467C25.8132 24.92 24.6665 25.04 22.9065 25.12C21.1732 25.2134 19.5865 25.2534 18.1198 25.2534L15.9998 25.3334C10.4132 25.3334 6.93317 25.12 5.55984 24.7467C4.35984 24.4134 3.5865 23.64 3.25317 22.44C3.07984 21.8134 2.95984 20.9734 2.87984 19.9067C2.7865 18.84 2.7465 17.92 2.7465 17.12L2.6665 16C2.6665 13.08 2.87984 10.9334 3.25317 9.56002C3.5865 8.36002 4.35984 7.58669 5.55984 7.25335C6.1865 7.08002 7.33317 6.96002 9.09317 6.88002C10.8265 6.78669 12.4132 6.74669 13.8798 6.74669L15.9998 6.66669C21.5865 6.66669 25.0665 6.88002 26.4398 7.25335C27.6398 7.58669 28.4132 8.36002 28.7465 9.56002Z" fill="#0A7AAC"/>
</svg>
